<svg fill="none" version="1.1" viewBox="0 0 110 96.059" xmlns="http://www.w3.org/2000/svg">
 <g transform="translate(0 -6.6)" fill="#1a1a1a" stroke="#000">
  <rect x="-3.5527e-15" y="6.6" width="110" height="96.059" ry="1.0557" fill="#156eaa" fill-rule="evenodd" stroke="none"/>
 </g>
 <path d="m55 28.598c-13.834 0-25.094 11.254-25.094 25.094 0 13.839 11.254 25.094 25.094 25.094 13.834 0 25.094-11.26 25.094-25.094 0-13.834-11.26-25.094-25.094-25.094zm23.123 22.386c-0.251 1.9763-1.143 3.9259-2.6813 5.7046-0.5769-2.6013-1.6879-5.2132-3.2102-7.6916 1.6345-1.8962 2.4143-4.0114 2.3182-6.1212 1.1377 1.2659 2.0617 2.6547 2.7561 4.1396 0.3846 1.2765 0.6623 2.6066 0.8172 3.9686zm-38.314-0.1869c-1.3567 2.6386-2.3502 5.3627-2.8843 8.028-2.692-2.0885-4.3105-4.5241-4.882-7.0185 0.6677-2.4677 1.9282-4.8126 3.6535-6.9224 0.4807 2.1045 1.8481 4.1555 4.1128 5.9129zm-3.3543-6.7943c1.8481-2.0404 4.1502-3.8351 6.7621-5.2665 0.2938 1.2872 1.1271 2.5371 2.5158 3.6161-2.0618 2.2326-3.8725 4.7271-5.3307 7.3336-2.1739-1.6932-3.4825-3.6641-3.9472-5.6832zm4.5935 7.6702c2.5212 1.6238 5.6085 2.7188 8.8827 3.2743-0.4593 3.0072-0.7958 6.0037-0.9774 8.8132-3.8939-0.6623-7.5581-1.9656-10.555-3.8938 0.4861-2.6921 1.3995-5.4749 2.6493-8.1937zm0.5502-1.1484c1.3407-2.6867 3.0018-5.2826 4.8927-7.6381 1.5436 0.9935 3.4291 1.6612 5.4375 2.003-0.6944 2.7935-1.3033 5.7794-1.7947 8.7812-3.1461-0.5341-6.1105-1.5864-8.5355-3.1461zm11.377-5.4855c2.0457 0.2243 4.1716 0.1228 6.1532-0.3205 0.8974 2.7561 1.6826 5.7046 2.3129 8.6797-3.1141 0.6997-6.4471 0.8653-9.6626 0.5074 0.3258-3.0285 0.7318-6.0411 1.1965-8.8666zm-1.33 10.148c3.3437 0.3739 6.8209 0.203 10.058-0.5287 0.5875 2.9804 1.0095 5.9609 1.2338 8.7598-3.8511 0.8653-7.98 1.0683-11.949 0.6249 0.1229-2.8149 0.3472-5.8274 0.657-8.856zm8.4874-10.731c1.0416-0.3045 2.0297-0.7104 2.9271-1.2125 0.7585-0.4273 1.4048-0.9027 1.9442-1.4048 2.1953 2.1205 4.1182 4.5134 5.6672 7.0346-0.8492 0.7958-1.8641 1.5383-3.0499 2.2059-1.4101 0.7906-2.9591 1.4315-4.5989 1.9069-0.7905-2.9324-1.768-5.8328-2.8897-8.5301zm8.0014 7.793c1.2338-0.6944 2.2968-1.4635 3.1781-2.2914 1.4422 2.5638 2.4891 5.2345 3.0392 7.8731-1.0469 0.9828-2.3074 1.9016-3.7763 2.7295-1.7413 0.9828-3.6642 1.7679-5.6832 2.3555-0.2778-2.7829-0.8066-5.7313-1.5437-8.6744 1.6986-0.5021 3.317-1.1644 4.7859-1.9923zm8.028-8.2577c-0.5074-0.7745-1.0896-1.5116-1.7359-2.206-0.1015-0.5502-0.2777-1.1003-0.5021-1.6452 0.8653 1.2018 1.6131 2.4945 2.238 3.8512zm-4.5989 3.9579c-1.6344-2.4303-3.6695-4.7111-5.993-6.7034 0.9989-1.1591 1.4742-2.4517 1.4208-3.7443 2.6333 1.1644 4.9408 2.7188 6.7996 4.5669 0.0908 2.0297-0.657 4.0647-2.2274 5.8808zm1.33-9.1444c0.3739 0.7264 0.6357 1.4689 0.7745 2.222-1.8481-1.7466-4.1449-3.1728-6.7568-4.1876-0.2457-1.2873-1.0255-2.5532-2.3555-3.6428 0.8599 0.0854 1.6611 0.2777 2.4249 0.5288 2.2434 1.3513 4.2411 3.0766 5.9129 5.0796zm-21.798-7.8892c1.7787-0.4326 3.7016-0.5555 5.5604-0.3792-0.4327 0.6302-0.9187 1.9389-1.4315 3.9526 0.0321 0.0053 0.0694 0.0107 0.1015 0.016 0.8172-1.971 1.5971-3.2475 2.2861-3.8458 1.9816 0.3045 3.8458 0.9615 5.336 1.955 0.2831-0.0054 0.5609-0.0054 0.8279 0.0053-1.0415-0.6997-2.2594-1.2285-3.5627-1.6184 1.8695 0.4326 3.6589 1.0843 5.3254 1.9389-2.7134-0.6036-6.0304-0.0641-9.6358 1.784 0.0213 0.016 0.0427 0.032 0.0587 0.0481 2.7615-1.1751 5.3627-1.6986 7.6916-1.6291 1.2018 0.9881 1.9122 2.1312 2.1312 3.3009-2.9004-0.9614-6.1533-1.4422-9.5985-1.3246 0.0054 0.0213 0.0107 0.0427 0.0107 0.064 3.4666 0.0748 6.7355 0.7372 9.6572 1.8642 0.0534 1.1644-0.3739 2.3395-1.2819 3.3864-2.5692-2.0404-5.4535-3.7336-8.5088-4.8927-0.016 0.0214-0.0374 0.0374-0.0534 0.0588 2.8897 1.33 5.6191 3.1781 8.0548 5.368-0.4861 0.4594-1.0737 0.8867-1.7573 1.2713-0.8119 0.4593-1.7039 0.8226-2.6494 1.1003-1.2445-2.8256-2.6333-5.3948-4.1075-7.4832-0.032 0.0106-0.0641 0.016-0.0961 0.0267 1.1804 2.1686 2.2968 4.8018 3.2956 7.6969-1.7947 0.4006-3.7176 0.5021-5.5657 0.2937 0.5128-2.9698 1.079-5.6938 1.6825-7.9532-0.032-0.0054-0.0694-0.0107-0.1014-0.0161-0.9027 2.2167-1.7627 4.9034-2.5265 7.8358-1.8161-0.3098-3.52-0.9134-4.9194-1.8107 2.0991-2.4464 4.444-4.5829 6.9224-6.2174-0.0053-0.0053-0.016-0.016-0.0267-0.0213-0.0107-0.0107-0.0267-0.0214-0.0427-0.0321-2.7028 1.4796-5.2613 3.4719-7.542 5.7847-1.2553-0.9721-2.0084-2.1045-2.2755-3.2689 2.9004-1.4261 6.1426-2.425 9.5771-2.8576-0.0053-0.0214-0.0107-0.0427-0.0107-0.0641-3.4612 0.235-6.7354 1.0522-9.6625 2.3181-0.0961-1.1697 0.2884-2.3448 1.1484-3.4024 2.6173-0.3419 5.539-0.1282 8.637 0.7264 0.0107-0.0213 0.032-0.0374 0.048-0.0587-2.9377-1.0256-5.7206-1.4048-8.2043-1.2072 0.5181-0.5128 1.1537-0.9881 1.9122-1.4154 0.7425-0.4167 1.549-0.7585 2.3983-1.0256 1.314 0.4594 2.7882 1.5811 4.3425 3.3918 0.0321-0.0107 0.0641-0.016 0.0962-0.0267-1.2659-1.9176-2.4677-3.1087-3.5414-3.6375zm-1.4475 0.1122c-0.9294 0.2884-1.8107 0.6623-2.6172 1.1163-0.8333 0.4701-1.5384 0.9988-2.1099 1.565-1.1751 0.171-2.2754 0.4861-3.2849 0.9241 2.3822-1.6719 5.0903-2.911 8.012-3.6054zm-12.451 7.6755c0.8439-1.0042 1.7733-1.9282 2.7722-2.7775 1.314-0.7478 2.7882-1.3033 4.4119-1.6184-0.9507 1.1697-1.378 2.473-1.2659 3.7603-2.6386 1.2873-4.9567 2.9484-6.8262 4.8873-0.1175-1.4368 0.1923-2.879 0.908-4.2517zm-1.0522 1.3407c-0.5128 1.2232-0.7265 2.4891-0.6196 3.7496-1.5971 1.8535-2.7989 3.9259-3.504 6.1319 0.5929-3.6428 2.0404-7.0079 4.1236-9.8815zm-4.4334 13.647c0-0.1122 0.0054-0.2244 0.0107-0.3365 0.0267-0.1656 0.0428-0.3312 0.0748-0.4968 0.5769 2.5265 2.2167 4.9835 4.9354 7.0987-0.1495 1.0202-0.2297 2.0244-0.2297 3.0125-0.0053 1.5757 0.187 3.0072 0.5502 4.2784-0.9668-0.7477-1.784-1.5489-2.4784-2.3715-1.8214-3.3277-2.863-7.1414-2.863-11.185zm3.8672 12.83c0.5234 0.5395 1.1003 1.0683 1.7519 1.5704 0.203 0.5555 0.4594 1.0629 0.7318 1.549-0.9134-0.9668-1.7466-2.0084-2.4837-3.1194zm2.4303-2.4944c0-0.9828 0.0748-1.9923 0.2137-3.0232 3.0285 1.9443 6.7354 3.2636 10.667 3.9312-0.0535 1.0576-0.0802 2.0832-0.0855 3.0713-0.0054 1.5757 0.0587 2.9484 0.1763 4.1235-3.8618-0.6569-7.494-1.9442-10.469-3.8564-0.3312-1.2552-0.5074-2.6707-0.5021-4.2464zm1.9069 7.3818c-0.454-0.6784-0.8493-1.4369-1.1484-2.3022 2.927 1.8802 6.5057 3.1514 10.304 3.7977 0.2296 1.6986 0.5982 2.8844 1.0736 3.5574-3.8405-0.8172-7.3391-2.5852-10.229-5.0529zm21.44 4.679c-0.9721 0.2777-1.971 0.4967-2.9912 0.641-2.1152 0.2457-4.2784 0.267-6.3936 0.0427-0.0641-0.0107-0.1228-0.016-0.1869-0.0214-0.3312-0.6356-0.5822-1.8321-0.7318-3.568 3.8725 0.4273 7.9106 0.235 11.66-0.6089-0.2938 1.6291-0.7638 2.7989-1.3567 3.5146zm-10.362-3.6749c-0.0747-1.1697-0.1175-2.5424-0.1121-4.1181 0-0.9882 0.0213-2.0137 0.0587-3.0767 4.0114 0.4487 8.1883 0.2404 12.077-0.6356 0.0641 1.0576 0.0908 2.0831 0.0908 3.0659-0.0054 1.5757-0.0962 2.9538-0.2618 4.1343-3.819 0.8653-7.9159 1.0682-11.852 0.6302zm22.605-4.7271c-2.6707 3.5414-6.3295 6.2975-10.56 7.8572 0.6837-0.7585 1.2339-1.9016 1.5864-3.4666 1.9763-0.5768 3.8458-1.346 5.5497-2.3021 1.4315-0.8065 2.66-1.7039 3.6855-2.6653-0.0801 0.2029-0.1763 0.3899-0.2617 0.5768zm0.5608-1.4368c-1.0415 0.9721-2.2861 1.8855-3.7443 2.7027-1.7306 0.9722-3.6321 1.752-5.6404 2.3396 0.2083-1.1912 0.3204-2.5746 0.3258-4.1503 0-0.9828-0.0374-2.0083-0.1122-3.0606 2.0458-0.5982 3.9847-1.3941 5.7473-2.3822 1.4849-0.8386 2.7562-1.7627 3.8138-2.7562 0.1549 1.0095 0.2403 2.0137 0.235 3.0019-0.0107 1.565-0.2244 3.0072-0.625 4.3051zm1.0897-1.1324c0.4273-1.3193 0.6516-2.7721 0.6516-4.3478 0.0054-0.9882-0.0801-1.9817-0.2457-2.9858 1.3888-1.6078 2.2487-3.3491 2.6066-5.1224 0.016 0.3418 0.0267 0.6837 0.0267 1.0255 0 4.0969-1.0683 7.948-2.9324 11.297-0.0374 0.0481-0.0694 0.0908-0.1068 0.1335z" fill="#fff"/>
 <path d="m104.56 73.919h-98.372v-24.143c32.743-2.5745 65.635-2.5745 98.372 0v24.143z" clip-rule="evenodd" fill="#156eaa" fill-rule="evenodd"/>
 <g fill="#fff">
  <path d="m25.115 19.533c-0.3526 0.032-0.7051 0.0641-1.0576 0.0961v-6.1105h1.0629c0 2.003 0 4.006-0.0053 6.0144z"/>
  <path d="m26.739 13.514h1.2552c0.6677 1.4743 1.3407 2.9057 2.003 4.2945-0.032 0.0374-0.0588 0.0694-0.0908 0.1068 0.0053-1.4688 0.0107-2.9377 0.0214-4.4013h0.9828c-0.0107 1.8482-0.016 3.6963-0.0267 5.539-0.422 0.0321-0.8386 0.0641-1.2606 0.0962-0.6623-1.3674-1.33-2.7668-1.9977-4.2144 0.0321-0.0373 0.0588-0.0694 0.0908-0.1068-0.0053 1.4903-0.0106 2.9805-0.016 4.4707-0.3258 0.0268-0.6516 0.0535-0.9774 0.0855 0.0053-1.9549 0.0106-3.9099 0.016-5.8702z"/>
  <path d="m31.845 13.514h3.99c0 0.3152-0.0054 0.6303-0.0054 0.9508-1.33 0.016-2.66 0.0321-3.99 0.0481 0-0.3365 0.0054-0.6677 0.0054-0.9989zm1.4795 0.438c0.3419 0 0.6837-0.0053 1.0256-0.0053-0.0107 1.6238-0.0214 3.2529-0.0321 4.8767-0.3418 0.0213-0.6837 0.0427-1.0255 0.0641 0.0107-1.6452 0.0213-3.2903 0.032-4.9355z"/>
  <path d="m36.775 13.508h1.0255c-0.0107 1.7039-0.0213 3.4131-0.0374 5.117-0.3418 0.016-0.6837 0.0374-1.0255 0.0534 0.016-1.7252 0.0267-3.4452 0.0374-5.1704zm0.3685 0h3.2743c0 0.3044-0.0053 0.6036-0.0053 0.908-1.0897 0.0107-2.1847 0.0214-3.2743 0.0321 0.0053-0.3152 0.0053-0.6303 0.0053-0.9401zm-0.0107 2.1258c0.9562-0.0213 1.9069-0.0427 2.863-0.0587 0 0.3044-0.0053 0.6036-0.0053 0.908-0.9561 0.0267-1.9122 0.0534-2.863 0.0855 0-0.3098 0-0.625 0.0053-0.9348zm-0.016 2.0885c1.0897-0.0481 2.1846-0.0908 3.2743-0.1335 0 0.3044-0.0054 0.6036-0.0054 0.908-1.0949 0.0481-2.1846 0.1015-3.2742 0.1603 0-0.3098 0.0053-0.6196 0.0053-0.9348z"/>
  <path d="m41.844 13.503h1.0255c-0.0107 1.6345-0.0214 3.2636-0.032 4.898-0.3419 0.0107-0.6837 0.0267-1.0256 0.0374 0.016-1.6451 0.0214-3.2903 0.0321-4.9354zm0.3952 2.0457c0.6303-0.0106 1.2659-0.0213 1.8962-0.0267 0.1068 0 0.1976-0.0267 0.2778-0.0747 0.0801-0.0481 0.1442-0.1176 0.1869-0.203 0.0427-0.0855 0.0694-0.187 0.0694-0.2991 0-0.1122-0.0213-0.2137-0.0641-0.2992-0.0427-0.0854-0.1068-0.1548-0.1869-0.1976-0.0801-0.0427-0.1709-0.0694-0.2831-0.0694-0.6303 0.0053-1.2606 0.0107-1.8962 0.0107 0-0.2991 0.0054-0.5929 0.0054-0.892h1.9763c0.2991 0 0.5608 0.0587 0.7905 0.1762 0.2243 0.1175 0.4006 0.2885 0.5234 0.5021 0.1229 0.219 0.187 0.4701 0.1816 0.7531 0 0.2885-0.064 0.5395-0.1922 0.7585s-0.3045 0.3899-0.5342 0.5128c-0.2297 0.1228-0.4914 0.1869-0.7905 0.1923-0.657 0.0107-1.3193 0.0267-1.9763 0.0427 0.016-0.2884 0.016-0.5875 0.016-0.8867zm1.1431 0.7211c0.3685-0.0587 0.7317-0.1175 1.1003-0.1762 0.4861 0.7424 0.9721 1.4742 1.4582 2.2059-0.4166 0.0107-0.8279 0.0214-1.2446 0.0374-0.4379-0.6837-0.8759-1.3727-1.3139-2.0671z"/>
  <path d="m47.335 13.503h1.2552c0.6677 1.2072 1.3407 2.409 2.0137 3.6001-0.0321 0.0267-0.0588 0.0587-0.0908 0.0854 0.0053-1.2285 0.0053-2.457 0.0107-3.6855h0.9828c-0.0054 1.565-0.0053 3.1247-0.0107 4.6844-0.422 0.0053-0.8439 0.0107-1.2659 0.016-0.673-1.1751-1.3407-2.3502-2.0083-3.5413 0.032-0.0267 0.0587-0.0588 0.0908-0.0855-0.0054 1.2178-0.0107 2.441-0.0161 3.6589-0.3258 0.0053-0.657 0.016-0.9828 0.0213 0.0054-1.581 0.0107-3.1674 0.0214-4.7538z"/>
  <path d="m54.749 13.503h0.6516c0.6944 1.5597 1.3888 3.114 2.0885 4.6844-0.3686-0.0054-0.7371-0.0054-1.1057-0.0054-0.438-1.0682-0.8706-2.1312-1.3086-3.1941-0.4326 1.0629-0.8706 2.1259-1.3086 3.1941-0.3686 0-0.7371 0.0054-1.1057 0.0054 0.6997-1.5704 1.3941-3.1247 2.0885-4.6844zm-1.0843 3.0766h2.8683v0.8493c-0.9561-0.0053-1.9122-0.0053-2.8683 0v-0.8493z"/>
  <path d="m57.895 13.503h3.99c0 0.2884 0 0.5769 0.0053 0.86-1.33-0.0054-2.66-0.0107-3.99-0.0107 0-0.2831 0-0.5662-0.0053-0.8493zm1.4849 0.3846h1.0255c0.0054 1.4421 0.0107 2.8897 0.016 4.3318-0.3418-0.0053-0.6837-0.0107-1.0308-0.016 0-1.4368-0.0054-2.8737-0.0107-4.3158z"/>
  <path d="m63.84 18.294c-0.3525-0.0107-0.7104-0.016-1.0629-0.0267-0.0054-1.5864-0.016-3.1781-0.0214-4.7645h1.063c0.0053 1.5971 0.0106 3.1941 0.0213 4.7912z"/>
  <path d="m66.292 18.198c-0.3044-0.1602-0.5341-0.3739-0.705-0.6463-0.1656-0.2724-0.2511-0.5875-0.2511-0.9454 0-0.454-0.0053-0.9134-0.0053-1.3674 0-0.3525 0.0801-0.6676 0.2403-0.9347 0.1656-0.2671 0.3953-0.4754 0.6944-0.625 0.2991-0.1495 0.6463-0.2243 1.0416-0.2243 0.3952 0 0.7424 0.0748 1.0415 0.2243 0.2992 0.1496 0.5342 0.3686 0.6998 0.6463 0.1655 0.2778 0.251 0.6036 0.251 0.9668 0.0053 0.4701 0.0054 0.9401 0.0107 1.4102 0 0.3632-0.0801 0.6836-0.2404 0.9561-0.1602 0.2724-0.3952 0.4753-0.6943 0.6142-0.2992 0.1389-0.6464 0.1976-1.0416 0.187-0.3953-0.0161-0.7425-0.1015-1.0416-0.2618zm1.5223-0.7531c0.1389-0.0641 0.2457-0.1656 0.3205-0.2938s0.1122-0.2777 0.1122-0.454c-0.0054-0.4807-0.0054-0.9668-0.0107-1.4475 0-0.1709-0.0428-0.3258-0.1175-0.454-0.0748-0.1335-0.187-0.235-0.3259-0.3045-0.1388-0.0747-0.3044-0.1068-0.486-0.1121-0.187 0-0.3472 0.032-0.4861 0.1014-0.1389 0.0695-0.2457 0.171-0.3205 0.2992-0.0747 0.1282-0.1121 0.2777-0.1121 0.4486 0.0053 0.4754 0.0053 0.9508 0.0107 1.4262 0 0.1709 0.0373 0.3205 0.1175 0.454 0.0747 0.1335 0.1869 0.235 0.3258 0.3098 0.1388 0.0748 0.3044 0.1175 0.486 0.1229 0.187 0 0.3472-0.0321 0.4861-0.0962z"/>
  <path d="m70.869 13.508h1.2553c0.6837 1.3086 1.3673 2.644 2.051 4.006l-0.0908 0.0908c-0.0106-1.3674-0.016-2.7294-0.0267-4.0968h0.9828c0.0107 1.7573 0.0214 3.5199 0.0321 5.2772-0.422-0.0267-0.8386-0.048-1.2606-0.0747-0.6837-1.3461-1.362-2.6654-2.0457-3.958l0.0908-0.0908c0.0107 1.314 0.016 2.628 0.0267 3.9419-0.3258-0.016-0.6517-0.032-0.9828-0.048-0.0107-1.6826-0.0214-3.3651-0.0321-5.0476z"/>
  <path d="m78.283 13.514h0.6516c0.7051 1.8482 1.4048 3.7443 2.1045 5.6993-0.3685-0.0321-0.7317-0.0588-1.1003-0.0855-0.438-1.3086-0.876-2.6012-1.3193-3.8671-0.4273 1.2445-0.8546 2.473-1.2819 3.6748-0.3686-0.0267-0.7371-0.048-1.1003-0.0748 0.6783-1.7359 1.362-3.5146 2.0457-5.3467zm-1.0629 3.5627c0.9507 0.0428 1.9068 0.0908 2.8576 0.1389 0 0.3419 0.0053 0.6784 0.0053 1.0202-0.9507-0.0641-1.9068-0.1175-2.8576-0.1763 0-0.3258 0-0.6516-0.0053-0.9828z"/>
  <path d="m82.177 13.514h1.0255c0.0053 1.9603 0.0107 3.9206 0.016 5.8755-0.3418-0.032-0.6783-0.0587-1.0202-0.0854-0.0107-1.9282-0.016-3.8565-0.0213-5.7901zm0.47 4.7752c1.0576 0.0748 2.1152 0.1496 3.1781 0.235v1.111c-1.0576-0.1014-2.1152-0.1922-3.1728-0.283 0-0.3579-0.0053-0.7104-0.0053-1.063z"/>
  <path d="m38.281 22.108c0.219-0.0161 0.4327-0.0374 0.6517-0.0535 0.6837 1.6292 1.3674 3.2262 2.0511 4.8019-0.3686 0.0428-0.7371 0.0855-1.1057 0.1282-0.4273-1.0896-0.8546-2.1846-1.2819-3.2956-0.4434 1.1965-0.8867 2.4143-1.3247 3.6428-0.3685 0.0534-0.7371 0.1068-1.1056 0.1656 0.705-1.8428 1.4101-3.6321 2.1151-5.3894zm-1.1003 3.4825c0.9561-0.1228 1.9122-0.2297 2.8683-0.3311 0 0.3044-0.0053 0.6035-0.0053 0.908-0.9561 0.1068-1.9122 0.2297-2.8683 0.3579 0-0.3152 0-0.625 0.0053-0.9348z"/>
  <path d="m45.62 21.622c0.454-0.0213 0.9026-0.0427 1.3567-0.0587-0.0054 1.5917-0.0161 3.1781-0.0214 4.7698-0.3151 0.0214-0.6249 0.0428-0.9401 0.0641 0.0054-1.2392 0.0107-2.4784 0.016-3.7176 0.0107 0.0695 0.0267 0.1389 0.0374 0.2083-0.3525 1.0096-0.705 2.0244-1.0629 3.05-0.3045 0.0213-0.6089 0.048-0.908 0.0747-0.3419-0.9507-0.6837-1.9122-1.0256-2.8736 0.0107-0.0962 0.0267-0.1923 0.0374-0.2831-0.0053 1.2659-0.016 2.5265-0.0214 3.7924-0.3098 0.032-0.6249 0.0587-0.9347 0.0908 0.0107-1.6398 0.0214-3.2796 0.0321-4.9141 0.454-0.032 0.9026-0.0587 1.3567-0.0854 0.3418 1.0736 0.6783 2.1418 1.0202 3.1994 0.3525-1.1163 0.705-2.222 1.0576-3.317z"/>
  <path d="m50.235 21.456c0.2189-0.0054 0.4379-0.0107 0.6569-0.016 0.6944 1.549 1.3888 3.098 2.0832 4.6469-0.3686 0.0054-0.7425 0.0107-1.111 0.0214-0.438-1.0576-0.8707-2.1098-1.3033-3.1728-0.438 1.0843-0.8814 2.1686-1.3193 3.2636-0.3686 0.016-0.7425 0.0374-1.111 0.0534 0.705-1.6131 1.4047-3.2101 2.1045-4.7965zm-1.095 3.1407c0.9614-0.0374 1.9229-0.0694 2.8843-0.0908v0.8493c-0.9614 0.0213-1.9229 0.0534-2.8843 0.0961v-0.8546z"/>
  <path d="m53.403 21.408c1.3354-0.0107 2.6707-0.0053 4.0114 0.0107v0.8493c-1.3354-0.016-2.676-0.0214-4.0114-0.0107v-0.8493zm1.4903 0.3739h1.0309v4.2891c-0.3472 0-0.6891-0.0053-1.0363-0.0053 0.0054-1.4208 0.0054-2.8523 0.0054-4.2838z"/>
  <path d="m58.354 21.43c0.3419 0.0054 0.6891 0.0107 1.0309 0.0214 0.0054 1.565 0.0107 3.1354 0.0107 4.7004-0.3472-0.0107-0.689-0.0214-1.0309-0.032-0.0053-1.5597-0.0053-3.1247-0.0107-4.6898zm0.3739 0.0054c1.095 0.0214 2.1953 0.0534 3.2903 0.0908 0 0.2884 0 0.5769 0.0054 0.8599-1.095-0.0427-2.1953-0.0747-3.2903-0.1014-0.0054-0.2778-0.0054-0.5609-0.0054-0.8493zm0.0054 1.9389c0.9614 0.0214 1.9175 0.0534 2.879 0.0961 0 0.2885 0 0.5716 0.0053 0.86-0.9614-0.0427-1.9175-0.0801-2.879-0.1015-0.0053-0.2884-0.0053-0.5715-0.0053-0.8546zm0.0053 1.9069c1.1003 0.032 2.2007 0.0747 3.2956 0.1335 0 0.2884 0 0.5769 0.0054 0.86-1.1003-0.0641-2.2007-0.1122-3.301-0.1443v-0.8492z"/>
  <path d="m64.31 26.264c-0.2992-0.1603-0.5288-0.3793-0.6837-0.657-0.1549-0.2778-0.2351-0.6036-0.2404-0.9775-0.0053-1.0148-0.0107-2.035-0.016-3.0499 0.3418 0.016 0.689 0.032 1.0309 0.0481 0.0053 1.0309 0.0106 2.0617 0.016 3.0926 0 0.2778 0.0854 0.4968 0.2564 0.657 0.1709 0.1656 0.4059 0.2564 0.7104 0.2831 0.3098 0.0267 0.5448-0.0321 0.7157-0.1709 0.1656-0.1389 0.2511-0.3472 0.2511-0.6303-0.0054-1.0416-0.0107-2.0885-0.0161-3.13 0.3419 0.0213 0.6837 0.0427 1.0309 0.0641 0.0054 1.0415 0.0107 2.0884 0.0214 3.13 0 0.3846-0.0748 0.705-0.2297 0.9668-0.1549 0.2564-0.3792 0.4433-0.6783 0.5608-0.2992 0.1122-0.657 0.1549-1.079 0.1175-0.4273-0.0427-0.7905-0.1388-1.0896-0.3044z"/>
  <path d="m68.978 21.9c0.3418 0.0267 0.6837 0.0481 1.0255 0.0748 0.0107 1.6718 0.0214 3.3437 0.0321 5.0155-0.3419-0.0427-0.6837-0.0801-1.0309-0.1228-0.0054-1.6558-0.016-3.3117-0.0267-4.9675zm0.4219 2.1045c0.6303 0.0588 1.2659 0.1175 1.8962 0.187 0.1069 0.0106 0.1977-0.0054 0.2778-0.0428 0.0801-0.0427 0.1388-0.1015 0.1816-0.1923 0.0427-0.0854 0.0641-0.1869 0.0694-0.3098 0-0.1175-0.0213-0.2243-0.0694-0.3204-0.0428-0.0962-0.1068-0.171-0.187-0.2297-0.0801-0.0588-0.1762-0.0908-0.283-0.1015-0.6303-0.0588-1.266-0.1122-1.8962-0.1656 0-0.2991-0.0054-0.6036-0.0054-0.9027 0.6623 0.0481 1.3193 0.1015 1.9763 0.1549 0.2991 0.0267 0.5662 0.1122 0.7905 0.2564 0.2297 0.1496 0.406 0.3418 0.5342 0.5876 0.1282 0.2457 0.1923 0.5234 0.1923 0.8279 0 0.3098-0.0588 0.5715-0.1816 0.7905-0.1229 0.219-0.2991 0.3792-0.5288 0.4754-0.2297 0.1015-0.4914 0.1335-0.7852 0.0961-0.657-0.0748-1.3193-0.1442-1.9817-0.2083 0.0054-0.2991 0.0054-0.5982 0-0.9027zm1.1538 0.8706c0.3632-0.016 0.7317-0.0267 1.095-0.0427 0.4967 0.844 0.9881 1.6986 1.4849 2.5746-0.4167-0.0588-0.828-0.1229-1.2446-0.1763-0.4433-0.7959-0.8867-1.5811-1.3353-2.3556z"/>
 </g>
 <path d="m74.101 76.339c-1.7627 2.1366-3.6322 4.1716-5.6085 6.0892-4.022 3.8992-8.5568 7.4084-13.492 10.432-4.9355-3.0232-9.4703-6.5324-13.492-10.432-1.9977-1.9336-3.8832-3.9954-5.6619-6.1533-3.2956 0.7425-6.5538 1.6826-9.764 2.8149 1.5811-0.2831 4.8874-0.8493 7.3337-1.0843 5.758 7.0399 12.718 13.017 20.767 17.84l0.3526 0.214h0.9293l0.3526-0.214c8.0441-4.8175 15.004-10.794 20.756-17.829 2.5692 0.2564 6.0251 0.8546 7.4672 1.1164-3.2689-1.1591-6.5859-2.1152-9.9402-2.8684zm21.734-61.661-0.0588-0.6035-0.4647-0.39c-2.911-2.4303-6.4524-4.6309-10.533-6.5378-3.4825-1.6291-7.3443-3.0392-11.478-4.1983-7.7717-2.1793-14.667-2.9484-18.209-2.9484h-0.1763c-3.5413 0-10.437 0.77449-18.209 2.9484-4.1342 1.1591-7.996 2.5692-11.479 4.1983-4.0808 1.9069-7.6221 4.1075-10.533 6.5378l-0.4647 0.39-0.0587 0.6035c-0.016 0.1389-0.3419 3.4773-0.1389 8.9041 0.1816 4.9888 0.8706 12.766 3.098 21.462 0.219 0.8653 0.454 1.7252 0.6997 2.5745h3.1033c0-0.0053-0.0053-0.016-0.0053-0.0213h5.5443l-5.8488-1.047c-0.2029-0.7104-0.3952-1.4261-0.5768-2.1418-2.1686-8.4394-2.8416-15.992-3.0286-20.837-0.1495-3.9633-0.0053-6.8209 0.0748-7.996 6.3295-5.1064 14.566-8.1242 20.425-9.764 7.0025-1.9603 13.791-2.8416 17.408-2.8416h0.1762c3.6161 0 10.405 0.87603 17.408 2.8416 5.8595 1.6398 14.096 4.6576 20.425 9.764 0.0801 1.1804 0.2243 4.0327 0.0748 7.996-0.1816 4.8446-0.8546 12.397-3.0286 20.837-0.1869 0.7371-0.3899 1.4688-0.5929 2.1953l-5.5657 0.9935h5.2773c0 0.0053-0.0053 0.016-0.0053 0.0213h3.1033c0.2457-0.8546 0.4754-1.7092 0.6997-2.5745 2.2274-8.7011 2.9111-16.473 3.098-21.462 0.1816-5.4268-0.1442-8.7652-0.1602-8.9041z" fill="#f7e10e"/>
 <g clip-rule="evenodd" fill-rule="evenodd">
  <g fill="#fff">
   <path d="m16.008 71.98c-0.1229 1.8267-0.9615 3.1514-2.441 4.0114-0.9508 0.5501-2.8523 1.159-5.6779 1.8641-2.6333 0.657-5.2559 1.362-7.8892 2.0778 0.11217-1.3407 0.23502-2.6867 0.35253-4.0327 0.11751-1.3461 0.25105-2.7028 0.38458-4.0488 1.8374-0.4166 3.6749-0.8172 5.5016-1.2232-0.08546 1.1805-0.17627 2.3556-0.27241 3.536 1.1858-0.2777 2.3769-0.5395 3.5734-0.8119 0.64093-0.1442 0.98813-0.4754 1.0362-1.0041 0.1122-1.3247 0.2137-2.6494 0.3205-3.9794 0.0481-0.6356-0.5715-1.0843-1.8909-1.3674-1.6078-0.3418-3.1995-0.689-4.7859-1.0522-0.48607-0.1122-0.95611-0.3739-1.3834-0.7585-0.90269-0.8172-1.2712-1.9549-1.1324-3.4078 0.12819-1.3193 0.26172-2.6386 0.37389-3.9633 0.17092-1.9923 0.97747-3.365 2.4303-4.0968 0.93474-0.47 2.7615-0.8439 5.4696-1.1377 2.4944-0.2671 4.9835-0.5288 7.4672-0.7852-0.1442 2.0137-0.2884 4.0274-0.4166 6.0411-1.7947 0.235-3.5841 0.4914-5.3681 0.7371 0.0427-0.6944 0.1122-1.3834 0.1656-2.0724-1.4636 0.1976-2.9378 0.3899-4.4013 0.5875-0.11216 1.095-0.21365 2.2007-0.29911 3.301-0.04807 0.6516 0.56084 1.1484 1.8267 1.4635 1.5917 0.3953 3.1995 0.7692 4.7966 1.1431 0.486 0.1121 0.9454 0.3578 1.4101 0.7371 0.9134 0.7424 1.3086 1.784 1.2125 3.1193-0.1389 1.7146-0.2511 3.4185-0.3632 5.1224z"/>
   <path d="m29.912 68.877c-0.0213 0.4754-0.3632 0.7638-0.9881 0.8546-1.1751 0.1709-2.3342 0.3525-3.5093 0.5448 0.1335-2.5799 0.2564-5.1598 0.4059-7.7343 0.1496-2.5799 0.3098-5.1544 0.4647-7.7343 1.4636-0.1442 2.9271-0.2831 4.38-0.4273-0.1336 2.4143-0.2778 4.834-0.3953 7.2482-0.1282 2.4143-0.2404 4.834-0.3579 7.2483zm-1.2231-18.118c-2.6867 0.219-4.4868 0.5555-5.3895 0.9668-1.4368 0.6569-2.1899 1.8748-2.3074 3.6588-0.219 3.3009-0.4541 6.6019-0.6731 9.8975-0.2136 3.301-0.4273 6.602-0.6249 9.9029 2.5852-0.5021 5.1544-0.9988 7.745-1.4315 2.8042-0.4647 4.6416-0.8759 5.5657-1.3139 1.4635-0.6944 2.238-1.8695 2.2968-3.5574 0.1121-3.114 0.2403-6.228 0.3739-9.342 0.1335-3.114 0.2991-6.2227 0.438-9.3367-2.4731 0.1709-4.9515 0.3472-7.4245 0.5555z"/>
   <path d="m49.092 63.477c-0.0213 1.2125-0.032 2.4197-0.0534 3.6268-0.0107 0.454-0.3418 0.689-0.9668 0.7157-1.1751 0.0535-2.3235 0.1282-3.4772 0.1923 0.0427-2.4303 0.1068-4.8713 0.1656-7.3016 0.0587-2.4357 0.1549-4.8713 0.251-7.307 1.4529-0.0481 2.9057-0.1015 4.3426-0.1389-0.0321 0.9027-0.0641 1.8108-0.0748 2.7134 1.7466-0.0373 3.4986-0.0641 5.2559-0.0801 0.0213-1.0522 0.0641-2.1045 0.0748-3.1567 0.0106-1.0523 0.0534-2.1099 0.0854-3.1621-2.473 0.016-4.93 0.0427-7.3924 0.1068-2.6707 0.0748-4.4654 0.3098-5.3681 0.657-1.3994 0.5448-2.1259 1.6665-2.2006 3.333-0.1336 3.082-0.2831 6.1639-0.3846 9.2406-0.1068 3.0819-0.2083 6.1639-0.2991 9.2405 2.5532-0.2564 5.101-0.4914 7.6541-0.6356 2.7722-0.1602 4.6096-0.3579 5.523-0.673 1.4208-0.4968 2.1472-1.5597 2.1686-3.1888 0.016-1.4315 0.0107-2.8683 0.0321-4.2998-1.7734 0.0267-3.5414 0.0588-5.3361 0.1175z"/>
   <path d="m68.044 63.845c0.0214 1.2178 0.0268 2.4357 0.0428 3.6481 0.0053 0.4594-0.3205 0.6677-0.9454 0.625-1.1645-0.0855-2.3235-0.1603-3.488-0.219-0.0213-2.4197-0.0373-4.8393-0.0427-7.2643-0.0053-2.4196 0.0321-4.8392 0.0534-7.2642 1.4529 0.0534 2.895 0.1228 4.3586 0.1976-0.0107 0.9134-0.0107 1.8268-0.0214 2.7348 1.7573 0.1122 3.52 0.2297 5.2826 0.3685-0.0107-1.0789-0.0053-2.1525-0.0107-3.2261-0.0053-1.079 0.0107-2.1579 0.0107-3.2316-2.473-0.1495-4.9407-0.2991-7.4031-0.3952-2.66-0.1069-4.4547 0.0107-5.336 0.2937-1.4048 0.4487-2.1045 1.4903-2.1366 3.1194-0.0587 3.0125-0.1175 6.0304-0.1335 9.0429-0.016 3.0126-0.0214 6.0304-0.0107 9.043 2.5532 0.0801 5.0957 0.1816 7.6435 0.3525 2.7722 0.1923 4.5989 0.2297 5.5016 0.016 1.4315-0.3365 2.1259-1.3246 2.0885-2.9912-0.0321-1.4635-0.0641-2.9217-0.1015-4.3852-1.784-0.1816-3.5574-0.3258-5.3521-0.4647z"/>
   <path d="m77.065 50.476c0.0214 3.7336 0.0053 7.4726 0.0854 11.201 0.0802 3.7337 0.1977 7.4619 0.3312 11.19 3.6321 0.5341 7.291 1.1431 10.944 1.8214-0.0748-1.2926-0.1336-2.5852-0.2083-3.8778-1.8161-0.3152-3.6215-0.6143-5.4109-0.9027-0.0534-1.0309-0.0961-2.0618-0.1442-3.0927-0.048-1.0309-0.0854-2.0617-0.1121-3.0926 1.8053 0.2457 3.6054 0.5021 5.4001 0.7745-0.0641-1.298-0.1122-2.5906-0.1442-3.8885-1.7841-0.2351-3.5734-0.4647-5.3467-0.6837-0.0535-1.7413-0.0748-3.4772-0.1122-5.2132 1.7733 0.1816 3.5306 0.3739 5.304 0.5662-0.0214-1.298-0.0428-2.5906-0.0748-3.8885-3.5039-0.3312-7.0025-0.6303-10.512-0.9134z"/>
   <path d="m96.801 56.383c1.1324 0.1442 2.2861 0.2991 3.4456 0.4487 0.635 0.0854 0.988 0.3899 0.998 0.9187 0.038 1.3941 0.118 2.7882 0.177 4.1876 0.058 1.3888 0.139 2.7882 0.219 4.1823 0.032 0.5128-0.262 0.7158-0.903 0.5929-1.1858-0.2297-2.3662-0.4487-3.5307-0.6623-0.1014-1.6131-0.1709-3.2209-0.2403-4.834-0.0748-1.613-0.1335-3.2261-0.1656-4.8339zm13.199 23.555c-0.978-1.4742-1.95-2.9271-2.916-4.3639-0.957-1.4261-1.913-2.8309-2.847-4.225 2.099 0.0534 3.087-1.0683 2.916-3.3704-0.128-1.7199-0.246-3.4345-0.353-5.1544-0.106-1.7199-0.181-3.4345-0.261-5.1544-0.096-1.9603-0.86-3.301-2.297-4.0328-0.881-0.4486-2.697-0.8225-5.4002-1.1056-2.4944-0.2617-4.9835-0.5181-7.4565-0.7745 0.1014 3.9579 0.1762 7.9159 0.3525 11.874 0.1763 3.9526 0.3952 7.9052 0.6249 11.852 1.8375 0.406 3.6749 0.8119 5.5123 1.2499-0.0748-1.1003-0.1389-2.1953-0.219-3.301-0.0801-1.1056-0.1335-2.2006-0.1869-3.3009 0.486 0.1015 0.9881 0.2029 1.4849 0.3044 0.892 1.2873 1.795 2.5906 2.697 3.9099 0.914 1.33 1.838 2.676 2.762 4.0381 1.848 0.5021 3.717 1.0255 5.587 1.5543z"/>
  </g>
  <path d="m10.608 63.439c-2.3715 0.2511-4.7378 0.5235-7.0986 0.8226 0.02671 0.0267 0.05876 0.0588 0.09081 0.0855 0.2457 0.2243 0.55016 0.4166 0.87598 0.4914 1.5864 0.3632 3.1781 0.7104 4.7698 1.0469 1.314 0.2777 2.9164 0.9561 2.7935 2.5692-0.1015 1.33-0.2083 2.6546-0.3205 3.9846-0.0908 1.1057-0.8759 1.7841-1.9175 2.0191-1.1911 0.2724-2.3822 0.5341-3.568 0.8119l-1.5276 0.3525 0.13353-1.5597c0.05341-0.6676 0.10683-1.33 0.16024-1.9977-1.0629 0.2351-2.1312 0.4701-3.1941 0.7105-0.10683 1.0736-0.21366 2.1418-0.30446 3.2154-0.06944 0.8013-0.14422 1.6078-0.21366 2.409 2.1098-0.5662 4.2197-1.127 6.3349-1.6558 1.1591-0.2884 2.3288-0.5983 3.4612-0.9668 0.6143-0.1976 1.3567-0.4487 1.9176-0.7745 1.2071-0.6997 1.784-1.7199 1.8748-3.1033 0.1175-1.7093 0.2297-3.4185 0.3525-5.1277 0.0641-0.8547-0.1122-1.5971-0.7905-2.1526-0.2778-0.2243-0.5929-0.4273-0.9454-0.5128-0.9722-0.219-1.9283-0.4433-2.8844-0.6677zm48.793 6.7622c2.1953 0.0748 4.3959 0.1709 6.5859 0.3205 1.1216 0.0748 2.2594 0.1496 3.381 0.1602 0.5288 0.0054 1.2606 0.0107 1.7787-0.1121 1.0042-0.2351 1.2339-0.876 1.2125-1.8588-0.0213-1.1217-0.0481-2.2487-0.0748-3.3704-1.0255-0.0908-2.0564-0.1816-3.0819-0.2618 0.0107 0.8012 0.016 1.5971 0.0267 2.3983 0.016 1.2606-1.0095 1.8588-2.1686 1.7734-1.1537-0.0855-2.3075-0.155-3.4612-0.219l-1.0683-0.0535-0.0107-1.0736c-0.0213-2.206-0.0374-4.4119-0.0427-6.6126-1.0149-0.016-2.0351-0.0267-3.0499-0.0374-0.0054 0.3419-0.0054 0.6784-0.0054 1.0202-0.0213 2.6387-0.0267 5.2826-0.0213 7.9266zm18.898-8.3859c0.0748 3.3544 0.1763 6.7141 0.2938 10.068 2.879 0.4327 5.7526 0.9081 8.6209 1.4262-0.0267-0.5074-0.0534-1.0202-0.0801-1.5276-1.5009-0.2564-3.0018-0.5075-4.5081-0.7478l-0.908-0.1443-0.0481-0.9187c-0.0534-1.0308-0.0961-2.0671-0.1442-3.098-0.0481-1.0415-0.0908-2.0831-0.1122-3.1247l-0.0267-1.3353 1.3193 0.1816c1.3514 0.1816 2.6974 0.3739 4.0435 0.5715-0.0107-0.2777-0.0214-0.5555-0.0321-0.8386-2.7989-0.2029-5.6084-0.3685-8.418-0.5127zm14.534 0.9935c0.0106 0.2564 0.0213 0.5181 0.032 0.7745 0.1603 3.6588 0.3632 7.3176 0.5769 10.976 1.0629 0.235 2.1258 0.47 3.1834 0.7157-0.0374-0.5875-0.0748-1.1698-0.1175-1.7573-0.0854-1.111-0.1335-2.222-0.1869-3.333l-0.0748-1.4742 1.4421 0.2991c0.4968 0.1015 0.9989 0.203 1.4956 0.3098l0.4434 0.0961 0.2564 0.3686c0.9024 1.3033 1.8004 2.6066 2.6974 3.9152 0.844 1.2285 1.688 2.4624 2.526 3.6962 0.748 0.203 1.496 0.406 2.244 0.6089-0.401-0.6035-0.807-1.2018-1.207-1.8053-0.946-1.4102-1.902-2.8149-2.847-4.2197l-1.234-1.8321 2.206 0.0588c0.432 0.0106 1.031-0.0321 1.362-0.3526 0.422-0.4059 0.422-1.2659 0.384-1.7947-0.096-1.2979-0.187-2.5959-0.272-3.8938-1.031-0.1282-2.062-0.2511-3.087-0.3739 0.037 0.7531 0.085 1.5009 0.128 2.254 0.08 1.3674-0.999 2.0191-2.254 1.7787-1.1752-0.2243-2.345-0.4433-3.5201-0.6623l-0.8813-0.1603-0.0534-0.892c-0.0641-1.0095-0.1122-2.019-0.1603-3.0232-1.0309-0.0961-2.0564-0.1869-3.0819-0.2777zm-68.14-0.5822c-1.0149 0.0694-2.0297 0.1388-3.0446 0.219-0.0641 0.9721-0.1282 1.9389-0.1923 2.911-0.1816 2.8096-0.3632 5.6191-0.5394 8.4287 2.1045-0.406 4.2143-0.8012 6.3295-1.1538 1.1377-0.1869 2.2914-0.3899 3.4131-0.6516 0.5822-0.1335 1.3086-0.3098 1.8481-0.5662 1.111-0.5288 1.6024-1.346 1.6505-2.5692 0.0855-2.3876 0.1816-4.7752 0.2831-7.1574-1.0149 0.0427-2.0351 0.0961-3.0499 0.1442-0.1175 2.3662-0.2297 4.7378-0.3472 7.104-0.0534 1.1217-0.9081 1.7733-1.9656 1.9282-1.1645 0.171-2.3289 0.3526-3.4933 0.5395l-1.3941 0.2244 0.0694-1.4102c0.1336-2.5798 0.2564-5.1597 0.406-7.7449 0.016-0.0802 0.0214-0.1603 0.0267-0.2457zm15.858-0.7745c-0.0214 0.5021-0.0374 1.0041-0.0534 1.5116-0.0908 2.6493-0.1816 5.2933-0.2564 7.9426 2.1365-0.2083 4.2731-0.39 6.415-0.5128 1.127-0.0641 2.2647-0.1389 3.3864-0.2724 0.5608-0.0641 1.2873-0.1549 1.8214-0.3419 1.0309-0.3578 1.3888-1.0629 1.4048-2.1258 0.0107-1.0416 0.0107-2.0885 0.0214-3.1301-1.0256 0.0161-2.0458 0.0321-3.0713 0.0641-0.0107 0.8493-0.0214 1.6933-0.0374 2.5425-0.0214 1.1805-0.9561 1.7787-2.0564 1.8321-1.1538 0.0534-2.3128 0.1282-3.4666 0.1923l-1.2232 0.0694 0.0214-1.2285c0.0374-2.206 0.0961-4.4173 0.1496-6.6233-1.0202 0.0214-2.0404 0.0481-3.0553 0.0802z" fill="url(#a)"/>
 </g>
 <path d="m55.027 44.077c5.9796 0 10.827-3.0634 10.827-6.8423s-4.8474-6.8423-10.827-6.8423c-5.9795 0-10.827 3.0634-10.827 6.8423s4.8474 6.8423 10.827 6.8423z" fill="#156eaa"/>
 <path d="m43.537 36.978c-0.1389 3.8939 5.0796 7.2429 11.639 7.4726 6.5539 0.2297 12.002-2.7508 12.141-6.6447 0.1389-3.8938-5.0796-7.2428-11.639-7.4725-6.5539-0.2297-12.002 2.7508-12.141 6.6446zm1.5062 1.3995 1.1324-2.3609 2.895-0.016 2.206 2.3502-1.0362 2.3608-2.9217 0.0641zm5.4375 2.3341 1.0469-2.3769 4.4975-0.7264 3.2956 1.8268-1.7092 2.7614-3.301 0.39zm8.9308-1.4101-3.3116-1.8374 0.8653-2.7722 3.1353-0.705 3.8779 1.8801-0.1336 2.5639zm-6.8583-7.2696 3.4238-0.8225 4.7271 1.1751-0.5875 1.4581-3.1087 0.6998 0.0053-0.0161-4.4867-0.8279zm3.5146-1.4101c2.4517 0.1335 4.6951 0.7264 6.4898 1.6238l-1.5063 0.1122 0.016-0.0268-5.0209-1.2498zm-7.3337 1.111 3.5841 0.3525h0.0053l-0.0267 1.5757-3.3597 2.1953 0.0053 0.0054-2.7401 0.016-0.8065-1.9763c0.8279-0.8653 1.9709-1.6077 3.3383-2.1686zm18.123 6.0571c-0.0321 0.9401-0.39 1.8268-1.0042 2.6226l-0.3258-0.0961-1.4155-1.9389-0.0374 0.0053 0.1282-2.4517 1.9549-0.6463c0.4808 0.7905 0.7318 1.6345 0.6998 2.5051zm-5.037 5.3734-0.0534-0.2724 3.7176-2.4356 0.2671 0.0801c-0.8813 1.0789-2.2434 1.987-3.9313 2.6279zm-6.6393 1.0202c-0.7958-0.0267-1.5703-0.1015-2.3181-0.2243l1.4902-1.2392 3.2743-0.3846 3.9152 0.5662 0.0641 0.3472c-1.8481 0.6677-4.0594 1.0148-6.4257 0.9347zm-10.966-5.7045 0.6303-0.0374 2.3395 2.4677 0.1496 1.1056c-1.5597-0.9721-2.6707-2.1953-3.1194-3.5359z" fill="#fff"/>
 <defs>
  <linearGradient id="a" x1="54.311" x2="54.311" y1="85.01" y2="67.853" gradientTransform="translate(0 -6.6)" gradientUnits="userSpaceOnUse">
   <stop stop-color="#156EAA" offset=".0024828"/>
   <stop stop-color="#458CBC" offset=".1054"/>
   <stop stop-color="#76AACD" offset=".2252"/>
   <stop stop-color="#A0C4DD" offset=".3485"/>
   <stop stop-color="#C2D9E9" offset=".4729"/>
   <stop stop-color="#DDEAF3" offset=".5989"/>
   <stop stop-color="#F0F6FA" offset=".7271"/>
   <stop stop-color="#FBFDFE" offset=".859"/>
   <stop stop-color="#fff" offset="1"/>
  </linearGradient>
 </defs>
</svg>
